<svg width="4839" height="4840" viewBox="0 0 4839 4840" fill="none" xmlns="http://www.w3.org/2000/svg">
<path d="M0.396484 2467.58C159.856 2441.97 341.125 2418.58 543.255 2401.19C1168.21 2350.49 1796.78 2366.38 2418.37 2448.61" stroke="#4A3AFF" stroke-width="5" stroke-miterlimit="10"/>
<path d="M5.76953 2250.38C166.968 2239.31 349.501 2232.2 552.421 2233.15C1179.39 2238.56 1804 2310.74 2415.68 2448.45" stroke="#4A3AFF" stroke-width="5" stroke-miterlimit="10"/>
<path d="M30.7402 2034.76C192.097 2038.08 374.63 2047.41 576.602 2066.38C1200.58 2128.06 1816.23 2255.98 2413.16 2447.98" stroke="#4A3AFF" stroke-width="5" stroke-miterlimit="10"/>
<path d="M74.8301 1822.14C236.186 1839.85 416.191 1865.46 615.476 1902.61C1231.44 2019.95 1833.16 2202.56 2410.47 2447.35" stroke="#4A3AFF" stroke-width="5" stroke-miterlimit="10"/>
<path d="M137.732 1614.27C295.77 1645.89 474.036 1688.09 669.212 1742.95C1271.95 1915.19 1854.7 2150.99 2407.62 2446.4" stroke="#4A3AFF" stroke-width="5" stroke-miterlimit="10"/>
<path d="M219.122 1412.88C373.841 1459.04 547.366 1516.74 737.011 1588.82C1322.09 1814.31 1881.53 2101.41 2405.89 2445.29" stroke="#4A3AFF" stroke-width="5" stroke-miterlimit="10"/>
<path d="M318.207 1219.71C468.185 1279.62 635.862 1352.49 818.238 1441.02C1380.75 1718.1 1912.21 2054.22 2403.67 2443.71" stroke="#4A3AFF" stroke-width="5" stroke-miterlimit="10"/>
<path d="M434.21 1036.18C578.182 1109.21 738.59 1196.78 912.273 1301.75C1447.66 1628.08 1946.81 2010.47 2401.3 2442.45" stroke="#4A3AFF" stroke-width="5" stroke-miterlimit="10"/>
<path d="M566.17 863.713C703.03 949.391 854.904 1051.04 1018.47 1171.02C1522.52 1544.09 1985.49 1969.72 2399.56 2440.71" stroke="#4A3AFF" stroke-width="5" stroke-miterlimit="10"/>
<path d="M712.988 703.895C841.789 801.43 983.865 916.195 1136.05 1050.4C1604.65 1467.18 2027.57 1932.65 2397.67 2438.97" stroke="#4A3AFF" stroke-width="5" stroke-miterlimit="10"/>
<path d="M873.712 557.672C993.03 666.43 1124.36 793.684 1263.43 940.855C1692.76 1398 2072.29 1899.5 2395.61 2436.91" stroke="#4A3AFF" stroke-width="5" stroke-miterlimit="10"/>
<path d="M1046.76 426.151C1155.97 545.185 1275.28 683.662 1401.08 842.847C1787.72 1336.59 2120.79 1870.05 2394.66 2434.23" stroke="#4A3AFF" stroke-width="5" stroke-miterlimit="10"/>
<path d="M1230.88 311.544C1329.02 439.904 1436.33 588.498 1546.95 758.275C1887.62 1284.77 2171.36 1845.99 2393.4 2432.49" stroke="#4A3AFF" stroke-width="5" stroke-miterlimit="10"/>
<path d="M1424.63 213.535C1510.76 350.115 1603.53 507.561 1698.82 686.664C1991.17 1241.56 2223.63 1826 2392.29 2430.12" stroke="#4A3AFF" stroke-width="5" stroke-miterlimit="10"/>
<path d="M1626.92 133.231C1700.57 276.925 1778.79 442.117 1857.65 629.124C2099.03 1207.97 2278.2 1810.85 2392.14 2427.59" stroke="#4A3AFF" stroke-width="5" stroke-miterlimit="10"/>
<path d="M1834.43 71.2633C1895.59 220.648 1958.8 392.637 2019.8 585.81C2208.27 1184.01 2332.66 1800.56 2390.88 2425.06" stroke="#4A3AFF" stroke-width="5" stroke-miterlimit="10"/>
<path d="M2047.14 28.2668C2094.55 182.868 2141.96 360.232 2185.74 557.356C2320.14 1170.09 2389.01 1795.38 2391.19 2422.69" stroke="#4A3AFF" stroke-width="5" stroke-miterlimit="10"/>
<path d="M2263.02 4.55493C2295.73 162.634 2327.18 342.843 2353.57 543.92C2432.26 1166.16 2444.61 1794.99 2390.4 2419.84" stroke="#4A3AFF" stroke-width="5" stroke-miterlimit="10"/>
<path d="M2480.32 0.286194C2498.81 160.736 2513.98 342.843 2522.2 545.658C2544.78 1172.66 2500.6 1800.29 2390.4 2417.94" stroke="#4A3AFF" stroke-width="5" stroke-miterlimit="10"/>
<path d="M2696.52 15.1459C2700.47 176.544 2699.36 359.441 2689.41 562.098C2655.83 1188.35 2555.71 1809.26 2390.71 2414.31" stroke="#4A3AFF" stroke-width="5" stroke-miterlimit="10"/>
<path d="M2910.97 49.9237C2900.38 211.164 2882.84 393.113 2854.71 594.031C2765.1 1214.71 2609.77 1824.11 2391.34 2411.94" stroke="#4A3AFF" stroke-width="5" stroke-miterlimit="10"/>
<path d="M3121.32 103.512C3096.35 263.171 3062.53 442.749 3016.54 640.98C2871.67 1251.18 2662.36 1844.25 2392.14 2410.2" stroke="#4A3AFF" stroke-width="5" stroke-miterlimit="10"/>
<path d="M3325.98 175.754C3286.94 332.568 3237.16 508.509 3173.63 701.049C2974.71 1295.85 2713.05 1867.79 2393.08 2407.19" stroke="#4A3AFF" stroke-width="5" stroke-miterlimit="10"/>
<path d="M3523.37 266.175C3470.26 418.721 3405 589.446 3324.4 775.663C3072.91 1350.2 2761.08 1896.37 2394.19 2404.98" stroke="#4A3AFF" stroke-width="5" stroke-miterlimit="10"/>
<path d="M3712.07 373.827C3645.53 520.998 3565.25 685.242 3468.21 863.871C3166.25 1413.2 2806.75 1928.85 2395.77 2402.14" stroke="#4A3AFF" stroke-width="5" stroke-miterlimit="10"/>
<path d="M3890.17 497.919C3811.15 638.609 3716.33 794.949 3603.49 963.777C3253.49 1484.16 2849.17 1965.85 2397.35 2400.71" stroke="#4A3AFF" stroke-width="5" stroke-miterlimit="10"/>
<path d="M4056.43 637.503C3964.77 770.605 3856.35 917.776 3728.81 1075.85C3333.59 1562.74 2887.74 2006.22 2398.77 2398.82" stroke="#4A3AFF" stroke-width="5" stroke-miterlimit="10"/>
<path d="M4209.57 791.471C4106.21 915.721 3985.15 1052.62 3844.34 1198.68C3407.15 1648.17 2923.42 2049.9 2401.3 2397.08" stroke="#4A3AFF" stroke-width="5" stroke-miterlimit="10"/>
<path d="M4348.16 958.559C4234.22 1073.01 4101.31 1198.52 3948.01 1331.31C3472.24 1739.8 2954.39 2096.54 2403.2 2395.5" stroke="#4A3AFF" stroke-width="5" stroke-miterlimit="10"/>
<path d="M4471.6 1137.51C4347.69 1241.36 4204.2 1354.39 4039.52 1472.95C3529.09 1837.15 2981.35 2145.99 2405.57 2394.23" stroke="#4A3AFF" stroke-width="5" stroke-miterlimit="10"/>
<path d="M4577.95 1327.2C4445.52 1419.36 4292.38 1519.11 4117.75 1622.49C3576.72 1939.48 3003.5 2197.97 2407.78 2393.6" stroke="#4A3AFF" stroke-width="5" stroke-miterlimit="10"/>
<path d="M4667.24 1524.48C4526.91 1604.47 4365.55 1690.15 4182.38 1777.41C3615.12 2044.65 3021.03 2250.74 2410.15 2392.18" stroke="#4A3AFF" stroke-width="5" stroke-miterlimit="10"/>
<path d="M4738.52 1729.67C4591.54 1796.69 4422.44 1867.51 4232.8 1938.02C3643.87 2153.26 3033.74 2305.23 2412.68 2391.39" stroke="#4A3AFF" stroke-width="5" stroke-miterlimit="10"/>
<path d="M4790.99 1940.39C4638.64 1993.98 4464.48 2049.46 4269.46 2102.58C3663.61 2264.14 3042.29 2360.8 2416 2390.91" stroke="#4A3AFF" stroke-width="5" stroke-miterlimit="10"/>
<path d="M4824.33 2154.9C4667.88 2194.74 4489.45 2233.94 4289.69 2269.67C3671.54 2376.23 3043.82 2416.77 2417.11 2390.6" stroke="#4A3AFF" stroke-width="5" stroke-miterlimit="10"/>
<path d="M4838.4 2371.63C4678.94 2397.23 4497.67 2420.63 4295.54 2437.86C3670.59 2488.63 3042.01 2472.73 2420.42 2390.44" stroke="#4A3AFF" stroke-width="5" stroke-miterlimit="10"/>
<path d="M4832.87 2588.67C4671.83 2599.89 4489.14 2607.01 4286.37 2606.06C3659.36 2600.56 3034.71 2528.39 2422.95 2390.75" stroke="#4A3AFF" stroke-width="5" stroke-miterlimit="10"/>
<path d="M4808.06 2804.45C4646.54 2801.13 4464.17 2791.8 4262.2 2772.83C3638.22 2711.21 3022.56 2583.35 2425.64 2391.39" stroke="#4A3AFF" stroke-width="5" stroke-miterlimit="10"/>
<path d="M4763.96 3017.06C4603.4 2999.36 4422.44 2973.59 4223.16 2936.44C3607.2 2819.15 3005.48 2636.59 2428.17 2391.86" stroke="#4A3AFF" stroke-width="5" stroke-miterlimit="10"/>
<path d="M4700.91 3224.94C4542.87 3193.32 4364.76 3150.95 4169.43 3096.1C3566.68 2923.95 2983.93 2688.2 2431.01 2392.81" stroke="#4A3AFF" stroke-width="5" stroke-miterlimit="10"/>
<path d="M4619.67 3426.17C4464.8 3380.01 4291.43 3322.47 4101.78 3250.39C3516.73 3024.84 2957.3 2737.73 2432.91 2393.92" stroke="#4A3AFF" stroke-width="5" stroke-miterlimit="10"/>
<path d="M4520.58 3619.34C4370.61 3559.43 4202.93 3486.56 4020.55 3398.03C3458.02 3120.98 2926.55 2784.86 2435.12 2395.34" stroke="#4A3AFF" stroke-width="5" stroke-miterlimit="10"/>
<path d="M4404.58 3803.03C4260.45 3730 4100.2 3642.26 3926.52 3537.46C3391.08 3211.13 2891.88 2828.75 2437.33 2396.76" stroke="#4A3AFF" stroke-width="5" stroke-miterlimit="10"/>
<path d="M4272.63 3975.49C4135.61 3889.81 3983.73 3788.17 3820.16 3668.19C3316.11 3295.12 2853.19 2869.44 2439.23 2398.34" stroke="#4A3AFF" stroke-width="5" stroke-miterlimit="10"/>
<path d="M4125.65 4135.31C3997.48 4037.78 3855.25 3922.85 3702.74 3788.64C3234.16 3371.92 2811.24 2906.5 2441.13 2400.24" stroke="#4A3AFF" stroke-width="5" stroke-miterlimit="10"/>
<path d="M3965.87 4281.38C3846.4 4172.62 3715.23 4045.52 3575.68 3898.19C3146.04 3441.12 2766.24 2939.61 2442.71 2402.14" stroke="#4A3AFF" stroke-width="5" stroke-miterlimit="10"/>
<path d="M3792.03 4412.58C3682.83 4293.55 3563.51 4155.07 3437.71 3995.89C3051.07 3502.14 2718.01 2968.69 2444.13 2404.51" stroke="#4A3AFF" stroke-width="5" stroke-miterlimit="10"/>
<path d="M3607.92 4527.5C3509.77 4399.3 3403.26 4250.71 3291.84 4080.93C2951.04 3554.44 2667.14 2993.22 2444.92 2406.72" stroke="#4A3AFF" stroke-width="5" stroke-miterlimit="10"/>
<path d="M3414.16 4625.67C3328.03 4489.09 3235.27 4331.49 3139.97 4152.38C2847.61 3597.55 2615.14 3013.16 2446.5 2409.09" stroke="#4A3AFF" stroke-width="5" stroke-miterlimit="10"/>
<path d="M3212.51 4705.98C3138.86 4562.12 3060.63 4396.93 2981.77 4210.08C2740.39 3631.24 2561.23 3028.36 2447.29 2411.62" stroke="#4A3AFF" stroke-width="5" stroke-miterlimit="10"/>
<path d="M3004.37 4767.94C2944 4618.08 2880.79 4446.57 2818.99 4253.24C2630.78 3655.06 2506.66 3038.57 2448.71 2414.15" stroke="#4A3AFF" stroke-width="5" stroke-miterlimit="10"/>
<path d="M2791.65 4810.94C2744.24 4656.18 2696.83 4479.77 2653.05 4281.69C2518.64 3668.96 2449.76 3043.67 2447.61 2416.36" stroke="#4A3AFF" stroke-width="5" stroke-miterlimit="10"/>
<path d="M2575.14 4834.65C2542.43 4676.57 2510.98 4496.36 2484.59 4295.13C2406.21 3672.91 2394.19 3044.12 2448.71 2419.37" stroke="#4A3AFF" stroke-width="5" stroke-miterlimit="10"/>
<path d="M2358.79 4838.92C2340.3 4678.47 2325.13 4496.2 2316.91 4293.55C2294.38 3666.75 2338.56 3039.34 2448.71 2421.89" stroke="#4A3AFF" stroke-width="5" stroke-miterlimit="10"/>
<path d="M2142.12 4823.74C2138.17 4662.19 2139.44 4479.45 2149.39 4276.79C2183.28 3650.47 2283.61 3029.53 2448.71 2424.42" stroke="#4A3AFF" stroke-width="5" stroke-miterlimit="10"/>
<path d="M1927.19 4789.13C1937.78 4627.89 1955.32 4445.94 1983.45 4245.02C2072.97 3624.32 2228.3 3014.91 2446.81 2427.11" stroke="#4A3AFF" stroke-width="5" stroke-miterlimit="10"/>
<path d="M1717.47 4735.54C1742.44 4576.03 1776.11 4396.3 1822.25 4198.07C1967.08 3587.85 2176.4 2994.78 2446.66 2428.85" stroke="#4A3AFF" stroke-width="5" stroke-miterlimit="10"/>
<path d="M1512.82 4662.66C1551.85 4506.01 1601.63 4330.7 1665.16 4137.37C1864.09 3542.61 2125.74 2970.72 2445.71 2431.38" stroke="#4A3AFF" stroke-width="5" stroke-miterlimit="10"/>
<path d="M1315.27 4573.03C1368.37 4420.49 1433.64 4249.76 1514.24 4063.54C1765.63 3488.81 2077.45 2942.47 2444.45 2433.75" stroke="#4A3AFF" stroke-width="5" stroke-miterlimit="10"/>
<path d="M1126.73 4465.38C1193.26 4318.21 1273.55 4153.96 1370.58 3975.33C1672.51 3425.69 2032.01 2909.72 2443.02 2436.12" stroke="#4A3AFF" stroke-width="5" stroke-miterlimit="10"/>
<path d="M948.623 4341.29C1027.64 4200.6 1122.46 4044.26 1235.3 3875.43C1585.3 3355.05 1989.62 2873.36 2441.44 2438.49" stroke="#4A3AFF" stroke-width="5" stroke-miterlimit="10"/>
<path d="M782.368 4201.7C874.03 4068.6 982.444 3921.43 1109.51 3763.35C1504.77 3276.45 1950.68 2832.97 2439.71 2440.39" stroke="#4A3AFF" stroke-width="5" stroke-miterlimit="10"/>
<path d="M629.227 4047.74C732.583 3923.49 853.64 3786.59 994.451 3640.52C1431.69 3191.02 1915.48 2789.3 2437.65 2442.13" stroke="#4A3AFF" stroke-width="5" stroke-miterlimit="10"/>
<path d="M490.629 3880.65C604.574 3766.2 737.325 3640.68 890.78 3507.9C1366.51 3099.35 1884.37 2742.61 2435.6 2443.71" stroke="#4A3AFF" stroke-width="5" stroke-miterlimit="10"/>
<path d="M367.362 3701.86C491.106 3598 634.762 3484.97 799.437 3366.41C1309.73 3002.2 1857.3 2693.32 2432.91 2444.97" stroke="#4A3AFF" stroke-width="5" stroke-miterlimit="10"/>
<path d="M260.684 3512.64C393.277 3420.32 546.415 3320.57 721.047 3217.35C1262.06 2900.34 1835.28 2641.84 2431.01 2446.24" stroke="#4A3AFF" stroke-width="5" stroke-miterlimit="10"/>
<path d="M171.552 3314.72C311.731 3234.74 473.245 3149.06 656.411 3061.8C1223.7 2794.66 1817.79 2588.63 2428.64 2447.19" stroke="#4A3AFF" stroke-width="5" stroke-miterlimit="10"/>
<path d="M100.276 3109.54C247.251 3042.35 416.351 2971.69 605.996 2901.19C1194.91 2685.93 1805.05 2533.95 2426.11 2447.82" stroke="#4A3AFF" stroke-width="5" stroke-miterlimit="10"/>
<path d="M47.8096 2898.82C200.158 2845.23 374.315 2789.74 570.123 2736.63C1175.98 2575.06 1797.29 2478.41 2423.59 2448.29" stroke="#4A3AFF" stroke-width="5" stroke-miterlimit="10"/>
<path d="M14.9355 2684.31C171.393 2644.47 349.817 2605.27 549.576 2569.54C1167.45 2462.94 1794.92 2422.41 2421.37 2448.61" stroke="#4A3AFF" stroke-width="5" stroke-miterlimit="10"/>
<path d="M0.396484 2467.58C159.856 2441.97 341.125 2418.58 543.255 2401.19C1168.21 2350.49 1796.78 2366.38 2418.37 2448.61" stroke="#4A3AFF" stroke-width="5" stroke-miterlimit="10"/>
</svg>
