<svg width="3628" height="3933" viewBox="0 0 3628 3933" fill="none" xmlns="http://www.w3.org/2000/svg">
<path d="M1154.46 2736.55C1168.19 2621.42 1199 2489.38 1245.93 2344.09C1294.97 2194.42 1352.96 2048.69 1419.52 1907.91C1488.8 1760.15 1566.15 1617.39 1651.11 1480.46C1730.73 1350.63 1819.16 1227.98 1915.61 1113.63C2004.03 1009.71 2087.96 931.409 2163.98 880.898C2237.24 832.111 2300.38 811.325 2351.6 818.864C2402.82 826.403 2439.35 861.943 2460.43 924.947C2482.18 989.566 2486.28 1081.22 2472.54 1196.35C2458.81 1311.48 2428 1444.05 2381.07 1588.8C2332.04 1738.49 2274.01 1884.22 2207.38 2024.98C2138.23 2172.8 2060.98 2315.6 1976.08 2452.54C1896.44 2582.35 1808.01 2704.99 1711.58 2819.37C1622.59 2923.29 1538.94 3001.59 1463.02 3052.1C1389.67 3100.89 1326.53 3121.68 1275.4 3114.14C1224.28 3106.6 1187.65 3071.06 1166.57 3008.05C1144.73 2943.43 1140.72 2851.78 1154.46 2736.65V2736.55ZM1147.11 2745.16C1089.88 3221.4 1342.46 3258.88 1710.44 2828.74C2078.42 2398.59 2422.94 1664.08 2479.79 1187.84C2536.64 711.596 2284.55 674.117 1917.04 1104.27C1549.53 1534.41 1204.53 2268.92 1147.59 2745.16H1147.11Z" stroke="#4A3AFF" stroke-width="2"/>
<path d="M1090.74 2723.51C1116.3 2597.18 1160.18 2454.27 1221.22 2299.93C1284.23 2141.76 1356.07 1988.27 1436.31 1840.38C1518.6 1687.43 1608.89 1540.16 1706.72 1399.36C1796.68 1268.15 1895.54 1145.04 2002.4 1031.14C2099.98 928.931 2189.64 854.511 2268.9 810.032C2345.21 766.952 2409.11 753.49 2458.04 769.86C2506.97 786.23 2538.93 831.679 2552.76 904.914C2567.07 980.303 2561.34 1083.26 2535.78 1209.49C2510.22 1335.71 2466.34 1478.73 2405.3 1633.06C2342.29 1791.26 2270.42 1944.75 2190.12 2092.61C2107.86 2245.56 2017.6 2392.84 1919.8 2533.64C1829.63 2664.85 1730.58 2787.96 1623.55 2901.86C1525.97 3004.07 1436.31 3078.49 1357.14 3122.97C1280.84 3166.05 1216.93 3179.51 1168 3163.14C1119.07 3146.77 1087.12 3101.32 1073.29 3028.09C1058.98 2952.7 1064.61 2849.74 1090.26 2723.51H1090.74ZM1082.25 2731.91C976.472 3254.14 1217.88 3335.03 1621.45 2912.2C2025.01 2489.38 2438.01 1723.42 2543.79 1201.09C2649.57 678.747 2408.16 597.973 2004.5 1020.8C1600.84 1443.62 1188.03 2209.58 1082.25 2731.91Z" stroke="#4A3AFF" stroke-width="2"/>
<path d="M1030.08 2698.96C1075.53 2542.82 1132.98 2391.47 1201.77 2246.62C1279.4 2081.14 1365.75 1921.07 1460.35 1767.26C1555.75 1610.53 1659.16 1460.22 1770.05 1317.08C1870.54 1186.06 1979.96 1064.13 2097.31 952.41C2203.09 853.435 2298.18 784.4 2379.93 746.921C2459 710.734 2522.33 705.565 2568.31 731.412C2614.28 757.26 2640.42 812.833 2646.14 896.622C2652.05 983.427 2635.65 1096.83 2597.4 1233.72C2551.98 1389.87 2494.53 1541.23 2425.71 1686.05C2348.45 1851.45 2262.45 2011.46 2168.18 2165.2C2072.74 2321.9 1969.33 2472.22 1858.47 2615.38C1757.99 2746.4 1648.57 2868.33 1531.22 2980.05C1425.44 3079.03 1330.34 3148.06 1248.5 3185.54C1169.53 3221.73 1106.19 3226.9 1060.22 3201.05C1014.25 3175.2 988.11 3119.63 982.387 3035.84C976.474 2949.04 992.88 2835.63 1031.13 2698.74L1030.08 2698.96ZM1022.45 2706.82C864.209 3272.99 1090.65 3400.29 1527.97 2991.36C1965.3 2582.43 2447.36 1792.03 2605.6 1225.96C2763.84 659.901 2537.4 532.493 2100.08 941.425C1662.75 1350.36 1179.54 2140.97 1021.59 2707.04L1022.45 2706.82Z" stroke="#4A3AFF" stroke-width="2"/>
<path d="M973.897 2662.23C1034.02 2496.67 1105.96 2336.9 1188.98 2184.48C1373.91 1841.87 1592.2 1523.69 1839.78 1235.87C1950.1 1106.54 2069.46 987.433 2196.7 879.714C2310.11 785.8 2409.97 723.335 2493.53 694.257C2574.32 666.147 2636.6 670.132 2678.47 706.103C2720.35 742.075 2739.99 808.094 2736.66 902.438C2733.32 1000.12 2705.37 1124.08 2653.67 1270.77C2593.55 1436.33 2521.62 1596.1 2438.59 1748.52C2346.51 1919.77 2245.78 2084.89 2136.89 2243.07C2028.32 2401.85 1911.77 2553.45 1787.79 2697.13C1677.44 2826.47 1558.05 2945.57 1430.78 3053.29C1317.46 3147.2 1217.6 3209.67 1133.95 3238.74C1053.26 3266.85 990.875 3262.87 949.098 3226.9C907.321 3190.93 887.576 3124.91 890.819 3030.56C894.253 2932.88 922.2 2808.92 973.897 2662.23V2662.23ZM964.359 2669.88C750.512 3276.76 957.301 3453.82 1426.3 3065.35C1895.29 2676.88 2448.79 1869.89 2662.64 1263.12C2876.49 656.347 2669.7 479.182 2200.7 867.651C1731.71 1256.12 1178.21 2063 964.359 2669.88V2669.88Z" stroke="#4A3AFF" stroke-width="2"/>
<path d="M922.582 2612.48C997.823 2438.8 1084.68 2271.85 1182.4 2113.08C1289.27 1937.57 1404.76 1768.97 1528.35 1608.08C1649.75 1448.97 1779.21 1297.94 1916.08 1155.74C2051.34 1015.74 2180.86 900.929 2301.14 813.693C2421.42 726.458 2525.19 672.285 2609.61 652.792C2691.16 633.944 2751.25 647.945 2788.26 694.471C2825.27 740.997 2837.38 817.786 2824.22 922.469C2810.48 1030.92 2770.23 1164.79 2704.32 1320.95C2629.15 1494.68 2542.29 1661.63 2444.5 1820.35C2337.7 1995.88 2222.23 2164.48 2098.64 2325.35C1977.24 2484.46 1847.78 2635.49 1710.92 2777.69C1575.66 2917.69 1446.14 3032.5 1325.86 3119.74C1205.58 3206.97 1101.81 3261.14 1017.39 3280.64C935.84 3299.49 875.75 3285.48 838.741 3238.96C801.733 3192.43 789.62 3115.64 802.782 3010.96C816.422 2902.51 856.769 2768.64 922.582 2612.48V2612.48ZM913.044 2619.69C640.728 3263.41 823.289 3492.8 1320.71 3132.12C1818.13 2771.44 2441.93 1957.02 2714.24 1313.31C2986.56 669.593 2804 440.195 2306.58 800.877C1809.16 1161.56 1185.07 1975.98 912.758 2619.69H913.044Z" stroke="#4A3AFF" stroke-width="2"/>
<path d="M878.515 2549.26C969.131 2368.76 1071.3 2195.99 1184.21 2032.3C1305.74 1854.41 1435.95 1684.31 1574.23 1522.78C1707.97 1365.21 1849.83 1216.69 1999.06 1077.99C2145.48 943.04 2283.78 834.695 2409.97 755.967C2536.16 677.239 2643.09 633.298 2727.21 624.467C2808.48 616.067 2865.52 641.053 2896.61 698.671C2927.71 756.29 2931.33 843.741 2907.48 958.44C2882.69 1076.91 2829.27 1220.36 2748.77 1383.74C2658.12 1564.21 2555.95 1736.99 2443.07 1900.7C2321.49 2078.53 2191.28 2248.63 2053.05 2410.22C1919.21 2567.82 1777.22 2716.35 1627.84 2855.01C1481.52 2989.96 1343.22 3098.3 1216.93 3177.03C1090.64 3255.76 984.007 3299.92 899.785 3308.75C818.519 3317.15 761.481 3292.16 730.386 3234.54C699.292 3176.92 695.572 3089.47 719.513 2974.77C744.312 2856.31 797.726 2712.85 878.229 2549.47L878.515 2549.26ZM867.832 2555.93C535.139 3231.96 687.75 3515.53 1210.35 3190.17C1732.95 2864.81 2426 2053.2 2759.07 1377.28C3092.14 701.364 2938.77 417.47 2416.65 742.828C1894.53 1068.19 1201 1879.8 867.832 2555.72V2555.93Z" stroke="#4A3AFF" stroke-width="2"/>
<path d="M841.794 2471.71C947.916 2286.16 1065.56 2109.34 1193.85 1942.59C1329.84 1764.25 1474.57 1594.65 1627.36 1434.58C1773.02 1280.75 1926.87 1137.14 2088.06 1004.54C2244.87 876.59 2390.8 777.184 2522.05 709.011C2653.29 640.838 2761.74 607.882 2844.63 611.113C2924.65 614.344 2977.4 650.961 3001.63 720.104C3025.86 789.246 3020.13 887.145 2984.65 1011.43C2948.02 1140.67 2880.87 1291.45 2785.21 1461.29C2679.11 1646.83 2561.5 1823.65 2433.25 1990.41C2297.31 2168.77 2152.61 2338.38 1999.83 2498.42C1854.16 2652.27 1700.28 2795.89 1539.04 2928.46C1382.32 3056.41 1236.29 3155.82 1105.14 3223.99C973.994 3292.16 865.449 3325.12 782.562 3321.89C702.536 3318.66 649.694 3282.04 625.563 3212.9C601.431 3143.75 607.058 3045.86 642.541 2921.57C679.167 2792.87 746.316 2641.56 841.985 2471.71H841.794ZM831.207 2477.31C435.561 3179.51 554.598 3520.05 1097.32 3237.88C1640.05 2955.71 2400.34 2157.88 2795.7 1455.69C3191.06 753.491 3072.31 412.947 2529.58 695.118C1986.86 977.288 1226.66 1775.12 830.825 2477.31H831.207Z" stroke="#4A3AFF" stroke-width="2"/>
<path d="M814.419 2379.74C936.087 2190.89 1069.31 2011.89 1213.12 1844.05C1363.09 1667.46 1521.88 1500.69 1688.69 1344.54C1845.37 1196.6 2010.31 1060.19 2182.49 936.147C2348.55 817.679 2501.16 729.473 2636.03 673.685C2770.9 617.898 2880.02 598.296 2960.33 614.451C3037.87 630.283 3085.37 679.07 3101.59 760.167C3117.8 841.265 3101.59 949.394 3053.9 1082.51C3004.58 1220.36 2923.32 1378.79 2812.29 1553.26C2690.78 1742.06 2557.75 1921.06 2414.17 2088.95C2264.17 2265.51 2105.39 2432.29 1938.59 2588.46C1781.92 2736.4 1616.98 2872.81 1444.8 2996.85C1278.74 3115.32 1126.13 3203.53 991.258 3259.31C856.387 3315.1 747.27 3334.7 666.958 3318.55C589.412 3302.72 541.817 3253.93 525.602 3172.83C509.387 3091.74 525.602 2983.61 573.293 2850.49C622.605 2712.64 703.871 2554.21 814.896 2379.74H814.419ZM803.832 2384.26C344.566 3105.84 424.497 3504.33 982.292 3273.64C1540.09 3042.95 2364.76 2270.64 2824.12 1548.74C3283.48 826.833 3203.46 428.671 2645.57 659.362C2087.68 890.052 1262.72 1662.36 803.355 2384.26H803.832Z" stroke="#4A3AFF" stroke-width="2"/>
<path d="M797.632 2273.44C934.574 2083.35 1083.13 1904.31 1242.21 1737.64C1405.53 1565.17 1577.71 1403.7 1757.84 1254.07C1924.56 1114.2 2099.55 987.361 2281.59 874.436C2455.66 768.137 2613.52 693.287 2750.68 651.93C2887.84 610.574 2996 605.189 3072.31 636.422C3146.04 666.254 3186.76 728.181 3194.3 820.802C3201.84 913.423 3174.56 1031.89 3114.18 1173.08C3051.61 1319.12 2955.75 1483.15 2829.18 1660.64C2692.23 1850.73 2543.68 2029.76 2384.6 2196.44C2221.25 2368.88 2049.08 2530.35 1868.96 2680C1702.43 2819.48 1527.67 2945.96 1345.89 3058.56C1171.72 3164.86 1013.96 3239.71 876.799 3281.07C739.639 3322.43 630.522 3327.81 554.216 3297.12C480.486 3267.28 439.758 3205.36 432.127 3112.74C424.496 3020.12 451.967 2901.65 512.343 2760.45C575.2 2614.41 671.059 2450.39 797.632 2273.44ZM786.377 2276.78C263.014 3010.85 298.687 3467.28 865.925 3296.25C1433.16 3125.23 2317.26 2391.59 2840.34 1657.3C3363.41 923.008 3328.03 466.797 2760.79 637.822C2193.55 808.847 1309.36 1542.49 786.377 2276.78V2276.78Z" stroke="#4A3AFF" stroke-width="2"/>
<path d="M792.672 2151.1C944.527 1961.98 1108.07 1785.27 1282.08 1622.29C1457.89 1456.37 1642.65 1302.93 1835.29 1162.85C2010.66 1033.73 2194.26 919.467 2384.6 821.017C2565.25 729.366 2726.74 670.239 2864.56 645.361C3002.39 620.482 3108.27 631.144 3179.32 677.67C3248 722.257 3281.38 797.754 3278.62 902.222C3275.85 1006.69 3237.13 1134.53 3163.3 1282.61C3087 1435.87 2976.35 1603.99 2834.42 1782.34C2682.6 1971.45 2519.09 2148.16 2345.11 2311.14C2169.29 2477.04 1984.53 2630.48 1791.9 2770.58C1616.38 2899.73 1432.61 3013.99 1242.11 3112.41C1061.46 3204.06 899.977 3263.19 762.15 3288.07C624.322 3312.95 518.353 3302.29 447.388 3255.76C378.809 3211.17 345.425 3135.68 348.191 3031.21C350.957 2926.74 389.873 2798.9 463.603 2650.39C539.909 2497.13 650.648 2329.01 792.481 2150.66L792.672 2151.1ZM781.226 2152.71C194.34 2890.45 180.318 3404.92 750.799 3301.86C1321.28 3198.79 2258.89 2517.16 2845.77 1779.43C3432.66 1041.69 3446.68 527.215 2876.2 630.283C2305.72 733.35 1368.11 1415.41 781.226 2153.14V2152.71Z" stroke="#4A3AFF" stroke-width="2"/>
<path d="M800.493 2014.97C966.522 1829.18 1144.38 1657.37 1332.63 1500.92C1519.63 1344.15 1715.59 1201.5 1919.23 1073.89C2102.21 957.697 2293.25 858.502 2490.47 777.292C2675.99 702.98 2839.38 662.055 2976.16 655.593C3112.94 649.131 3214.62 677.133 3279.09 739.921C3341.19 800.232 3365.7 889.622 3351.97 1005.61C3338.23 1121.6 3286.92 1258.27 3199.36 1411.96C3108.84 1571.14 2983.31 1741.52 2826.41 1918.14C2660.34 2103.88 2482.49 2275.68 2294.27 2432.19C2107.26 2588.93 1911.31 2731.58 1707.67 2859.21C1524.69 2975.28 1333.65 3074.33 1136.43 3155.39C951.007 3229.7 787.617 3270.62 650.839 3277.09C514.061 3283.55 412.383 3255.55 347.905 3192.76C285.811 3132.45 261.298 3043.06 275.033 2927.06C288.768 2811.07 340.084 2674.4 427.644 2520.72C518.162 2361.54 643.59 2191.16 800.589 2014.53L800.493 2014.97ZM789.334 2014.53C140.067 2747.32 72.3458 3318.76 638.058 3291.95C1203.77 3265.13 2188.5 2650.39 2837.76 1918.04C3487.03 1185.69 3554.65 614.883 2988.94 641.161C2423.23 667.44 1438.41 1282.61 789.238 2014.97L789.334 2014.53Z" stroke="#4A3AFF" stroke-width="2"/>
<path d="M822.623 1863.43C1002.04 1683.56 1193.36 1519.41 1394.92 1372.43C1591.89 1227.56 1797.77 1098.75 2010.99 986.981C2218.64 878.637 2416.17 797.216 2598.16 744.983C2786.45 691.133 2949.84 670.347 3083.56 684.348C3217.29 698.349 3313.53 745.629 3369.71 825.218C3423.79 902.007 3438.19 1005.51 3412.54 1132.7C3386.88 1259.89 3322.49 1404.53 3221.2 1562.42C3116.28 1725.79 2976.16 1896.28 2804.66 2069.57C2625.27 2249.47 2433.94 2413.61 2232.37 2560.57C2035.44 2705.46 1829.59 2834.27 1616.39 2946.02C1408.75 3054.36 1211.21 3135.78 1029.22 3188.02C840.841 3241.87 677.547 3262.65 543.725 3248.65C409.904 3234.65 313.854 3187.37 257.579 3107.78C203.593 3030.99 189.19 2927.5 214.848 2800.3C240.505 2673.11 304.888 2528.47 406.184 2370.59C511.105 2207.21 651.221 2036.72 822.623 1863.43V1863.43ZM811.749 1862.25C102.487 2578.23 -23.894 3205.36 529.418 3262.87C1082.73 3320.38 2106.09 2786.73 2815.25 2070.75C3524.42 1354.77 3650.9 727.643 3097.58 670.67C2544.27 613.698 1520.82 1146.27 811.749 1862.25Z" stroke="#4A3AFF" stroke-width="2"/>
<path d="M860.203 1698.33C1237.54 1362.33 1658.81 1094.56 2108.95 904.591C2322.41 815.955 2523.29 755.644 2705.85 725.488C2894.9 694.256 3056 696.733 3184.67 732.919C3313.34 769.106 3401.95 836.849 3448.02 934.208C3492.37 1028.34 3495.71 1145.94 3457.08 1283.8C3418.45 1421.65 3340.71 1573.08 3225.4 1733.44C3106.07 1899.51 2951.65 2068.06 2766.42 2234.67C2574.94 2405.95 2371.45 2559.38 2157.97 2693.47C1952.59 2823.83 1738.46 2935.82 1517.58 3028.41C1304.02 3117.04 1103.24 3177.36 920.58 3207.51C731.628 3238.74 570.527 3236.27 441.761 3200.08C312.995 3163.89 224.576 3096.15 178.506 2998.79C134.058 2904.66 130.815 2787.06 169.445 2649.2C208.075 2511.35 286.002 2359.6 401.605 2199.56C520.928 2033.49 675.352 1864.94 860.489 1698.33H860.203ZM849.997 1695.42C84.078 2384.69 -105.256 3063.95 427.072 3213.97C959.4 3364 2011.75 2926.63 2777.58 2237.79C3543.4 1548.95 3732.73 869.266 3200.5 719.242C2668.27 569.218 1615.53 1006.58 849.902 1695.42H849.997Z" stroke="#4A3AFF" stroke-width="2"/>
<path d="M914.284 1520.09C1116.71 1359.91 1331.19 1220.09 1555.25 1102.22C1767.13 989.322 1987.35 897.571 2213.39 828.018C2430.48 762.107 2632.31 725.92 2813.15 720.32C3000.39 714.719 3156.53 741.859 3278.33 802.601C3400.13 863.343 3478.63 952.087 3513.16 1067.86C3546.45 1179.65 3537.01 1311.26 3485.02 1459.13C3433.04 1607 3341.19 1763.6 3212.04 1924.71C3078.51 2091.43 2910.25 2255.56 2712.43 2412.7C2509.97 2572.83 2295.5 2712.65 2071.46 2830.57C1859.58 2943.45 1639.36 3035.2 1413.32 3104.77C1196.23 3170.68 994.405 3206.87 813.56 3212.47C626.23 3218.07 470.184 3190.39 348.381 3130.18C226.578 3069.98 148.079 2980.7 113.455 2864.92C80.1667 2753.13 89.7049 2621.52 142.07 2473.65C194.435 2325.78 285.811 2169.19 415.054 2008.07C548.589 1841.35 716.843 1677.22 914.665 1520.09H914.284ZM905.127 1515.14C87.0342 2164.88 -169.162 2893.68 332.834 3143C834.831 3392.32 1905.21 3067.61 2723.3 2417.87C3541.4 1768.12 3797.59 1039.32 3295.6 790.001C2793.6 540.678 1723.22 865.389 905.032 1515.14H905.127Z" stroke="#4A3AFF" stroke-width="2"/>
<path d="M985.726 1329.57C1197.41 1183.53 1420.99 1060.7 1653.4 962.749C1870.17 869.899 2094.51 801.36 2323.18 758.121C2541.41 718.273 2741.62 709.118 2918.17 730.981C3100.92 754.244 3250.58 809.278 3362.27 894.899C3473.96 980.519 3541.49 1092.63 3562.57 1226.93C3583.17 1356.17 3560 1502.1 3493.8 1659.02C3427.61 1815.94 3322.11 1976.3 3179.04 2136.02C3031.29 2301.23 2850.35 2458.36 2641.27 2603C2429.59 2749.04 2206.01 2871.87 1973.6 2969.82C1756.81 3062.47 1532.47 3130.83 1303.83 3173.91C1085.59 3213.76 885.384 3222.91 708.736 3201.05C525.602 3178.76 376.425 3124.26 264.637 3038.1C152.849 2951.94 85.5091 2840.37 64.3342 2706.07C43.8271 2576.83 66.9096 2430.9 133.2 2273.98C199.491 2117.06 305.365 1956.7 447.961 1796.98C595.804 1631.77 776.744 1474.64 985.822 1330L985.726 1329.57ZM976.283 1323C111.644 1920.73 -214.754 2693.47 247.468 3049.52C709.69 3405.57 1785.6 3208.59 2650.43 2610.43C3515.26 2012.27 3841.66 1239.53 3379.44 883.483C2917.22 527.431 1841.88 724.412 976.57 1322.57L976.283 1323Z" stroke="#4A3AFF" stroke-width="2"/>
<path d="M1075.38 1128.28C1294.73 999.053 1525.61 896.488 1764.14 822.309C1983.77 752.732 2209.61 711.152 2437.44 698.348C2654.06 687.578 2849.78 708.364 3019.27 760.167C3194.78 814.017 3334.03 898.129 3434 1011.32C3533.96 1124.51 3587.47 1259.03 3593.95 1412.71C3600.25 1560.58 3562.28 1719.12 3481.21 1883.89C3400.13 2048.67 3280.14 2211.19 3124.38 2367.14C2963.09 2528.69 2770.33 2675.8 2552.09 2804.72C2332.74 2933.95 2101.87 3036.51 1863.34 3110.69C1643.71 3180.27 1417.86 3221.85 1190.03 3234.65C973.421 3245.42 777.602 3224.63 608.203 3172.83C432.7 3118.98 293.442 3034.87 193.576 2921.68C93.7113 2808.49 39.1527 2673.43 33.0483 2520.29C26.753 2372.42 64.7152 2213.88 145.695 2049.1C226.674 1884.33 346.856 1721.81 502.615 1565.86C663.906 1404.31 856.578 1257.2 1075.38 1128.28V1128.28ZM1067.18 1118.91C162.291 1652.34 -237.456 2464.18 175.072 2932.23C587.6 3400.29 1654.93 3347.41 2559.63 2813.76C3464.33 2280.12 3863.98 1468.82 3451.93 1000.77C3039.88 532.708 1972.07 585.588 1067.37 1119.23L1067.18 1118.91Z" stroke="#4A3AFF" stroke-width="2"/>
<path d="M1183.74 917.516C1408.84 808.035 1644.7 729.254 1886.32 682.84C2106.89 639.204 2331.51 627.73 2554.67 648.7C2766.51 670.239 2955.27 724.089 3114.37 807.555C3279.38 894.36 3406.24 1010.24 3491.22 1152.19C3575.41 1290.5 3615.34 1457.08 3604.44 1624.45C3594.91 1790.41 3541.2 1961.33 3444.96 2132.46C3348.72 2303.6 3214.62 2466.33 3046.46 2616.25C2872.48 2771.44 2669.32 2905.85 2442.88 3015.81C2217.77 3125.27 1981.91 3204.05 1740.29 3250.48C1519.73 3294.12 1295.11 3305.59 1071.95 3284.62C860.012 3263.08 671.346 3209.23 512.248 3125.77C347.142 3038.96 220.379 2923.08 135.393 2781.13C51.2372 2642.81 11.3674 2476.23 22.3654 2308.87C31.9036 2142.91 85.6038 1971.89 182.226 1800.86C278.848 1629.83 412.574 1466.99 580.637 1317.08C765.362 1154.74 968.12 1020.41 1183.74 917.516V917.516ZM1176.97 905.669C240.028 1360.8 -234.594 2204.41 116.985 2790.39C468.563 3376.38 1513 3482.25 2450.03 3027.33C3387.07 2572.41 3861.69 1728.81 3510.02 1142.61C3158.34 556.402 2113.91 450.965 1176.97 905.669Z" stroke="#4A3AFF" stroke-width="2"/>
<path d="M1311.93 699.318C1540.87 612.328 1779.22 560.844 2020.43 546.278C2240.03 531.716 2460.34 553.706 2674.28 611.543C2878.2 668.301 3055.8 756.937 3202.12 875.19C3353.59 997.535 3464.71 1146.37 3532.43 1317.4C3600.08 1487.97 3621.04 1677.48 3592.62 1861.6C3565.81 2045.23 3495.52 2227.78 3383.63 2403.54C3271.75 2579.31 3124.19 2740.31 2944.88 2881.4C2750.97 3032.09 2538.99 3150.72 2315.35 3233.68C2086.41 3320.67 1848.07 3372.16 1606.85 3386.72C1387.22 3401.28 1166.88 3379.29 952.914 3321.46C748.987 3264.7 571.385 3176.06 425.164 3057.81C273.411 2935.46 162.196 2786.63 94.4743 2615.6C26.8242 2445.03 5.89735 2255.51 34.3835 2071.4C61.1859 1887.77 131.483 1705.22 243.27 1529.46C355.058 1353.69 502.805 1192.69 682.029 1051.6C875.925 900.891 1087.91 782.263 1311.55 699.318H1311.93ZM1305.92 685.317C346.474 1047.72 -204.644 1915.24 75.4932 2622.82C355.631 3330.4 1360.77 3610.2 2320.6 3247.47C3280.43 2884.74 3831.64 2017.55 3551.51 1309.97C3271.37 602.389 2266.23 322.588 1306.3 685.317H1305.92Z" stroke="#4A3AFF" stroke-width="2"/>
<path d="M1459.49 475.736C1690.55 414.254 1928.65 393.618 2165.32 414.563C2382.24 432.796 2594.97 491.573 2794.84 588.496C2987.22 683.271 3150.71 809.709 3280.52 964.149C3411.16 1116.68 3505.53 1304.03 3554.84 1508.78C3602.66 1710.6 3602.99 1923.02 3555.8 2125.03C3510.3 2325.68 3422.26 2518.13 3295.12 2697.13C3167.97 2876.12 3007.06 3032.61 2817.54 3162.17C2616.02 3298.76 2396.63 3398.5 2167.51 3457.7C1936.45 3519.18 1698.34 3539.81 1461.68 3518.87C1244.76 3500.64 1032.03 3441.86 832.159 3344.93C639.773 3250.16 476.288 3123.72 346.473 2969.28C212.271 2809.03 119.845 2625.83 72.0587 2424.22C24.2883 2222.39 23.9595 2009.98 71.1049 1807.97C116.698 1607.33 204.64 1414.87 331.784 1235.87C458.929 1056.88 619.934 900.822 809.458 771.261C1010.97 634.658 1230.36 534.916 1459.49 475.736V475.736ZM1455.58 459.258C483.156 715.042 -144.84 1597.2 52.7915 2429.71C250.423 3262.22 1199 3729.53 2171.42 3473.74C3143.84 3217.96 3771.84 2335.8 3574.21 1502.86C3376.57 669.916 2428 203.474 1455.58 459.258V459.258Z" stroke="#4A3AFF" stroke-width="2"/>
<path d="M1626.79 249.246C1858.13 216.384 2092.8 230.241 2319.84 290.171C2531.94 345.356 2733.3 443.909 2913.97 580.957C3086.33 710.913 3233.58 878.968 3346.82 1074.97C3459.6 1270.68 3531.31 1492.89 3556.47 1724.65C3581.63 1956.41 3559.57 2191.59 3491.99 2412.27C3424.14 2633.42 3317.25 2836.72 3177.8 3009.88C3031.98 3192.37 2857.76 3343.13 2663.78 3454.68C2245.11 3695.45 1764.71 3762.07 1306.88 3642.83C1094.81 3587.65 893.474 3489.1 712.837 3352.04C540.475 3222.09 393.229 3054.03 279.993 2858.03C167.161 2662.35 95.4036 2440.15 70.195 2208.39C44.9864 1976.63 66.9928 1741.43 134.535 1520.74C202.557 1299.53 309.639 1096.22 449.296 923.116C595.119 740.626 769.337 589.869 963.311 478.321C1170.79 358.147 1395.55 280.581 1627.08 249.246H1626.79ZM1624.98 230.291C652.079 365.129 -52.7955 1251.92 51.1711 2210.87C155.138 3169.82 1029.03 3837.66 2002.31 3702.71C2975.59 3567.76 3680.08 2681.08 3576.12 1722.13C3472.15 763.184 2597.97 95.3444 1624.69 230.291H1624.98Z" stroke="#4A3AFF" stroke-width="2"/>
<path d="M1813.26 22.5397C2210.45 22.8243 2595.35 178.126 2902.75 462.137C3210.14 746.148 3421.14 1141.41 3500.01 1580.96C3578.87 2020.51 3520.74 2477.33 3335.48 2874.03C3150.21 3270.74 2849.19 3582.94 2483.42 3757.74C2063.36 3954.16 1591.57 3955.05 1170.94 3760.22C750.305 3565.39 414.973 3190.65 238.083 2717.75C61.1936 2244.84 57.1008 1712.14 226.697 1235.84C396.294 759.545 725.818 378.295 1143.39 175.256C1355.31 74.0056 1583.15 22.0642 1813.26 22.5397V22.5397ZM1813.26 1C1468.98 1 1132.43 116.275 846.166 332.247C559.905 548.218 336.792 855.188 205.041 1214.34C73.2894 1573.48 38.8172 1968.68 105.983 2349.95C173.15 2731.22 338.938 3081.44 582.382 3356.32C825.827 3631.2 1135.99 3818.39 1473.66 3894.23C1811.33 3970.07 2161.33 3931.15 2479.41 3782.39C2797.48 3633.62 3069.35 3381.7 3260.62 3058.47C3451.89 2735.25 3553.99 2355.24 3553.99 1966.5C3553.99 1708.39 3508.96 1452.8 3421.48 1214.34C3334 975.87 3205.78 759.195 3044.14 576.682C2882.5 394.168 2690.6 249.39 2479.41 150.615C2268.21 51.8392 2041.86 1 1813.26 1V1Z" stroke="#4A3AFF" stroke-width="2"/>
</svg>
