<svg width="4570" height="4572" viewBox="0 0 4570 4572" fill="none" xmlns="http://www.w3.org/2000/svg">
<path d="M4356.6 3108.58C4073.02 2735.52 3721.03 2419.87 3319.41 2178.47C2564.26 1728.2 1230.48 1314.24 469.86 1925.86C237.163 2113.08 -39.7863 2474.95 53.0688 2763.61C195.521 3207.65 1100.83 3443.1 1766.48 3188.76C1919.05 3129.87 2060.69 3045.83 2185.51 2940.13" stroke="#4A3AFF" stroke-width="5" stroke-miterlimit="10"/>
<path d="M4239.75 3357.08C4004.2 2952.01 3693.67 2595.51 3324.75 2306.63C2630.64 1766.86 1357.76 1192.04 527.907 1705.7C273.954 1862.83 -45.1345 2187.91 11.2996 2485.77C98.3124 2944.11 967.571 3288.96 1659.45 3118.27C1818.16 3078.61 1969.09 3012.6 2105.95 2922.98" stroke="#4A3AFF" stroke-width="5" stroke-miterlimit="10"/>
<path d="M4093.2 3589.17C3909.22 3158.16 3644.84 2766.13 3314.18 2434.05C2691.67 1813.23 1499.34 1086.25 612.311 1494C340.955 1618.31 -15.6737 1902.12 3.2205 2204.7C34.0479 2670.5 854.455 3119.64 1561.75 3035.23C1724.12 3015.31 1882.02 2968.33 2028.88 2896.25" stroke="#4A3AFF" stroke-width="5" stroke-miterlimit="10"/>
<path d="M3919.17 3801.87C3789.56 3351.55 3575.38 2930.04 3288.08 2559.86C2746.49 1867.18 1652.36 999.106 722.197 1294.85C437.54 1385.22 48.7169 1622.66 30.9415 1925.36C3.34596 2391.04 762.471 2937.52 1475.11 2940.75C1638.67 2941.04 1801.11 2913.86 1955.67 2860.32" stroke="#4A3AFF" stroke-width="5" stroke-miterlimit="10"/>
<path d="M3720.41 3991.33C3647.07 3528.66 3486.29 3084.2 3246.69 2681.69C2794.34 1927.11 1815.2 931.233 855.698 1110.37C562.092 1165.07 147.165 1353.03 92.2226 1651.26C7.69579 2109.97 693.854 2745.21 1400.65 2836.46C1562.97 2856.76 1727.55 2849.7 1887.55 2815.57" stroke="#4A3AFF" stroke-width="5" stroke-miterlimit="10"/>
<path d="M3499.9 4154.92C3484.23 3686.65 3379.52 3225.64 3191.37 2796.55C2835.12 1992.62 1985.62 883.994 1011.58 944.286C713.247 962.56 278.183 1098.06 187.316 1387.21C46.4799 1831.51 649.23 2546.81 1339.24 2723.7C1497.84 2763.84 1662.05 2777.07 1825.02 2762.86" stroke="#4A3AFF" stroke-width="5" stroke-miterlimit="10"/>
<path d="M3260.98 4290.3C3302.72 3823.53 3255.21 3353.08 3121.01 2904.08C2866.31 2062.48 2159.65 857.888 1185.35 797.471C887.021 779.073 439.526 859.628 312.985 1135.73C119.195 1560.01 629.587 2343.93 1292.87 2604.36C1445.32 2663.64 1606.62 2696.96 1770.08 2702.94" stroke="#4A3AFF" stroke-width="5" stroke-miterlimit="10"/>
<path d="M3007.15 4395.09C3105.94 3937.2 3116.62 3464.68 3038.6 3002.79C2889.31 2135.83 2335.91 853.413 1376.53 673.78C1082.93 618.834 628.098 644.069 469.113 902.268C224.607 1300.07 634.686 2140.18 1261.05 2480.17C1405.07 2557.76 1561.08 2610.63 1722.6 2636.56" stroke="#4A3AFF" stroke-width="5" stroke-miterlimit="10"/>
<path d="M2742.38 4468.07C2896.78 4025.63 2965.5 3557.83 2944.88 3089.68C2902.98 2211.29 2511.43 870.692 1581.38 574.454C1296.85 483.829 842.023 453 652.832 689.692C361.464 1053.81 665.263 1938.54 1245.02 2353C1378.41 2447.68 1526.73 2519.32 1683.81 2564.96" stroke="#4A3AFF" stroke-width="5" stroke-miterlimit="10"/>
<path d="M2470.41 4507.85C2677.85 4087.86 2803.48 3632.22 2840.59 3165.26C2907.09 2288.48 2683.22 909.85 1796.43 501.605C1525.2 376.671 1077.96 290.273 860.797 501.605C527.289 826.933 720.085 1742.25 1244.52 2224.83C1365.28 2335.2 1503.69 2424.53 1653.98 2489.12" stroke="#4A3AFF" stroke-width="5" stroke-miterlimit="10"/>
<path d="M2196.2 4513.94C2453.84 4122.52 2634.57 3685.61 2728.71 3226.55C2902.74 2364.56 2849.66 968.899 2020.18 454.367C1766.23 296.986 1333.03 156.015 1091.5 339.626C719.836 622.065 798.644 1554.29 1259.81 2097.41C1366.08 2221.82 1492.47 2327.5 1633.72 2410.06" stroke="#4A3AFF" stroke-width="5" stroke-miterlimit="10"/>
<path d="M1923.47 4486.34C2227.27 4129.57 2460.31 3718.18 2610.13 3274.16C2888.44 2440.02 3007.9 1048.96 2247.28 436.342C2014.21 249.002 1601.52 55.9436 1339.24 207.854C935.875 442.185 899.578 1376.4 1290.51 1973.1C1380.68 2109.61 1493.12 2230 1623.15 2329.26" stroke="#4A3AFF" stroke-width="5" stroke-miterlimit="10"/>
<path d="M1655.22 4425.3C2000.61 4108.52 2282.46 3728.8 2485.7 3306.48C2864.33 2512.99 3153.58 1146.54 2474.26 445.665C2266.42 231.225 1880.58 -10.937 1601.77 108.404C1172.67 291.393 1021.77 1214.79 1336.5 1853.88C1409.12 2000.41 1505.75 2133.73 1622.4 2248.33" stroke="#4A3AFF" stroke-width="5" stroke-miterlimit="10"/>
<path d="M1397.04 4331.82C1778.64 4059.91 2104.95 3717.79 2358.53 3323.76C2831.88 2582.24 3286.84 1262.28 2698.88 483.083C2518.89 245.148 2165.86 -43.1344 1874.49 40.6527C1426.25 169.441 1162.98 1066.98 1396.79 1740.26C1451.09 1894.65 1530.93 2038.83 1632.97 2166.78" stroke="#4A3AFF" stroke-width="5" stroke-miterlimit="10"/>
<path d="M1152.79 4207.38C1564.95 3984.34 1930.84 3684.79 2230.87 3324.76C2791.73 2647.62 3405.55 1393.06 2917.65 547.478C2768.49 288.782 2453.38 -40.2747 2153.81 7.08861C1693.13 79.8118 1321.71 938.319 1471 1635.59C1505.78 1795.47 1567.13 1948.38 1652.49 2087.97" stroke="#4A3AFF" stroke-width="5" stroke-miterlimit="10"/>
<path d="M924.688 4053.73C1361.09 3883.05 1761.01 3630.85 2103.09 3310.59C2742.76 2707.42 3506.11 1538 3125.86 638.723C3009.52 363.618 2737.29 -1.61396 2434.24 8.95266C1968.1 24.4918 1494 830.787 1556.53 1540.74C1571.29 1703.64 1613.31 1862.9 1680.83 2011.89" stroke="#4A3AFF" stroke-width="5" stroke-miterlimit="10"/>
<path d="M717.721 3873.23C1171.77 3757.55 1599.62 3556.43 1978.41 3280.63C2687.44 2760.62 3589.15 1693.64 3321.77 754.832C3240.1 467.544 3014.86 71.1095 2712.68 44.3822C2248.15 2.61299 1678.47 744.514 1653.23 1456.7C1648.02 1620.23 1670.25 1783.48 1718.99 1939.66" stroke="#4A3AFF" stroke-width="5" stroke-miterlimit="10"/>
<path d="M534.371 3668.73C999.242 3609.74 1448.62 3462.71 1858.46 3235.5C2626.04 2806.62 3651.3 1858.48 3502.13 893.938C3456.39 598.695 3281.49 178.143 2985.15 113.998C2529.33 15.4173 1872.75 681.736 1760.26 1385.47C1734.93 1547.09 1736.9 1711.82 1766.1 1872.78" stroke="#4A3AFF" stroke-width="5" stroke-miterlimit="10"/>
<path d="M377.625 3443.23C846.239 3441.87 1310.3 3351.2 1744.97 3176.08C2559.29 2844.78 3693.56 2029.79 3663.73 1054.18C3654.65 755.827 3532.71 316.628 3246.44 216.68C2806.03 62.7807 2072.64 642.95 1874.62 1327.92C1829.63 1485.37 1811.35 1649.24 1820.55 1812.74" stroke="#4A3AFF" stroke-width="5" stroke-miterlimit="10"/>
<path d="M249.84 3200.2C715.041 3256.42 1186.69 3223.47 1639.56 3103.11C2488.43 2874.37 3714.19 2205.07 3804.56 1233.07C3832.16 935.708 3765.16 485.073 3493.8 350.442C3075.77 143.709 2276.49 629.649 1995.82 1284.78C1931.85 1435.34 1893.57 1595.57 1882.57 1758.79" stroke="#4A3AFF" stroke-width="5" stroke-miterlimit="10"/>
<path d="M152.76 2943.36C607.557 3056.33 1079.7 3081.64 1543.97 3017.95C2414.1 2895.26 3713.33 2381.72 3922.28 1428.24C3986.92 1136.22 3975.11 680.244 3721.9 513.913C3332.46 257.579 2479.61 641.458 2120.49 1256.93C2038.53 1398.53 1980.89 1552.87 1949.95 1713.53" stroke="#4A3AFF" stroke-width="5" stroke-miterlimit="10"/>
<path d="M88.1191 2676.47C525.584 2844.39 991.024 2927.46 1459.57 2921.24C2338.64 2906.45 3690.58 2556.38 4015.26 1635.84C4114.7 1354.15 4159.45 900.777 3928.25 704.113C3573.23 401.535 2679.61 677.883 2247.65 1244.75C2149.11 1375.21 2073.14 1521.27 2022.91 1676.86" stroke="#4A3AFF" stroke-width="5" stroke-miterlimit="10"/>
<path d="M56.6738 2403.6C470.15 2624.06 921.847 2763.71 1387.6 2815.07C2261.83 2908.56 3646.58 2727.18 4081.89 1853.51C4215.14 1586.11 4315.33 1141.82 4110.48 918.179C3795.49 574.329 2874.65 738.795 2376.19 1248.23C2262.14 1365.7 2168.61 1501.47 2099.49 1649.89" stroke="#4A3AFF" stroke-width="5" stroke-miterlimit="10"/>
<path d="M58.9082 2128.99C442.17 2398.56 873.277 2592.63 1329.17 2700.83C2185.38 2900.98 3581.81 2891.28 4121.17 2077.65C4286.24 1829.02 4440.38 1400.02 4264.49 1153.01C3994.13 772.982 3060.11 823.081 2502.85 1267.25C2375.29 1369.67 2265.79 1492.74 2178.91 1631.36" stroke="#4A3AFF" stroke-width="5" stroke-miterlimit="10"/>
<path d="M95.082 1856.74C442.34 2171.35 846.309 2416.97 1285.42 2580.5C2110.55 2884.32 3498.03 3046.3 4132.98 2305.14C4327.26 2078.39 4532.86 1671.89 4388.79 1405.11C4167.04 994.881 3234.01 929.616 2626.41 1302.06C2487.22 1388.03 2363.4 1496.68 2260.09 1623.53" stroke="#4A3AFF" stroke-width="5" stroke-miterlimit="10"/>
<path d="M164.32 1591.09C470.296 1945.96 841.023 2239.34 1256.7 2455.56C2038.2 2858.46 3394.74 3189.75 4116.44 2532.26C4337.21 2331.12 4591.16 1952.96 4480.9 1670.52C4311.35 1235.92 3393.37 1056.66 2744.62 1351.54C2595.97 1419.57 2459.76 1512.01 2341.63 1625.02" stroke="#4A3AFF" stroke-width="5" stroke-miterlimit="10"/>
<path d="M265.627 1335.75C525.678 1725.61 857.601 2062.36 1243.65 2328.01C1969.59 2824.02 3275.4 3319.41 4072.19 2755.65C4316.08 2583.1 4614.53 2239.01 4539.82 1945.13C4424.97 1493.13 3535.94 1202.36 2855.75 1415.31C2699.83 1464.61 2553.28 1539.7 2422.18 1637.45" stroke="#4A3AFF" stroke-width="5" stroke-miterlimit="10"/>
<path d="M397.635 1094.95C607.76 1513.82 895.771 1888.8 1246.26 2199.85C1905.82 2781.26 3140.78 3433.41 4000.84 2971.83C4263.99 2830.61 4602.59 2525.8 4564.56 2224.96C4506.01 1761.77 3659.5 1363.97 2958.42 1492.26C2797.58 1522.11 2642.87 1578.71 2500.74 1659.71" stroke="#4A3AFF" stroke-width="5" stroke-miterlimit="10"/>
<path d="M558.238 872.184C715.324 1313.55 955.073 1720.94 1264.66 2072.55C1847.77 2731.41 2993.23 3530 3903.51 3177.7C4182.08 3069.79 4555.49 2808.98 4554.61 2505.78C4553.5 2039.36 3762.18 1540.49 3050.54 1581.14C2887.25 1590.97 2726.78 1628.16 2575.82 1691.16" stroke="#4A3AFF" stroke-width="5" stroke-miterlimit="10"/>
<path d="M744.941 670.795C846.512 1128.29 1034.37 1562.23 1298.47 1949.36C1796.31 2674.1 2834.87 3607.82 3781.57 3370.01C4071.19 3297.16 4473.82 3084.09 4510.36 2783.12C4566.42 2320.06 3842.47 1727.83 3131.46 1680.72C2968.15 1670.42 2804.28 1687.6 2646.67 1731.56" stroke="#4A3AFF" stroke-width="5" stroke-miterlimit="10"/>
<path d="M954.893 493.774C999.566 960.271 1132.71 1413.98 1347.2 1830.64C1752.18 2611.08 2668.18 3665.38 3636.88 3546.16C3933.34 3509.49 4359.08 3347.26 4432.42 3053.38C4545.04 2600.76 3899.28 1924 3199.45 1789.86C3038.68 1759.64 2873.98 1756.53 2712.18 1780.66" stroke="#4A3AFF" stroke-width="5" stroke-miterlimit="10"/>
<path d="M1185.1 344.599C1172.15 813.028 1248.51 1279.64 1410.09 1719.5C1716.13 2543.45 2495.27 3702.3 3471.67 3702.55C3770 3702.55 4212.9 3594.27 4321.67 3311.21C4488.98 2876.11 3931.35 2124.89 3253.27 1905.72C3097.46 1855.86 2934.4 1832.41 2770.85 1836.36" stroke="#4A3AFF" stroke-width="5" stroke-miterlimit="10"/>
<path d="M1431.97 223.891C1361.46 687.23 1379.89 1159.76 1486.29 1616.2C1688.78 2471.85 2320 3717.09 3288.7 3837.92C3585.16 3875.22 4037.51 3821.51 4180.21 3553.99C4399.85 3142.52 3938.69 2328.64 3292.68 2027.92C3144.18 1959.31 2985.23 1916.12 2822.44 1900.13" stroke="#4A3AFF" stroke-width="5" stroke-miterlimit="10"/>
<path d="M1691.77 134.758C1564.88 585.889 1525.1 1057.07 1574.55 1523.09C1670.39 2397.13 2143.61 3711 3090.19 3949.43C3379.82 4022.4 3835.39 4025.26 4010.04 3777.38C4278.54 3395.99 3920.79 2531.64 3316.67 2153.73C3177.71 2067.43 3025.28 2005.03 2865.69 1969.12" stroke="#4A3AFF" stroke-width="5" stroke-miterlimit="10"/>
<path d="M1960.76 78.3188C1779.33 510.402 1681.88 973.1 1673.62 1441.66C1661.19 2320.93 1969.46 3683.15 2879.37 4035.95C3157.81 4143.98 3609.53 4202.78 3813.27 3978.15C4126.51 3632.68 3877.78 2730.91 3324.63 2281.65C3197.34 2178.9 3053.72 2098.22 2899.75 2042.96" stroke="#4A3AFF" stroke-width="5" stroke-miterlimit="10"/>
<path d="M2234.23 55.3213C2001.18 461.855 1847.71 909.066 1782.01 1373.04C1661.69 2244.1 1800.29 3633.92 2660.1 4095.5C2923.12 4236.97 3364.28 4350.84 3593.99 4152.93C3947.39 3848.61 3811.28 2923.1 3317.54 2409.19C3203.81 2291.59 3071.16 2193.89 2925.11 2120.16" stroke="#4A3AFF" stroke-width="5" stroke-miterlimit="10"/>
<path d="M2508.44 66.1367C2227.2 440.961 2019.94 865.94 1897.74 1318.34C1671.38 2167.9 1637.57 3564.31 2434.61 4128.44C2678.37 4301.11 3102.12 4468.31 3354.46 4300.12C3742.66 4041.55 3721.28 3106.71 3294.42 2535.62C3196.02 2404.94 3076.39 2291.69 2940.53 2200.59" stroke="#4A3AFF" stroke-width="5" stroke-miterlimit="10"/>
<path d="M2779.43 110.518C2454.28 447.941 2196.39 844.232 2019.56 1278.19C1690.4 2093.56 1485.8 3475.18 2207.01 4132.92C2427.65 4334.31 2827.66 4552.23 3098.64 4416.48C3515.68 4207.51 3609.41 3276.77 3255.89 2657.94C3174.29 2516.15 3069.5 2389.04 2945.87 2281.9" stroke="#4A3AFF" stroke-width="5" stroke-miterlimit="10"/>
<path d="M3042.95 187.965C2678.78 482.854 2374.11 844.419 2145.23 1253.33C1718.49 2022.08 1345.58 3368.14 1980.53 4109.55C2174.81 4336.42 2544.99 4601.95 2830.89 4500.39C3270.31 4344.25 3477.27 3432.17 3202.93 2774.55C3139.51 2623.85 3051.27 2484.85 2941.89 2363.32" stroke="#4A3AFF" stroke-width="5" stroke-miterlimit="10"/>
<path d="M3294.92 297.11C2897.29 545.04 2550.52 866.439 2273.14 1244.13C1755.04 1954.58 1219.66 3244.58 1758.64 4058.45C1923.59 4307.08 2258.22 4616.5 2554.19 4550.86C3009.52 4449.92 3327.48 3570.15 3135.56 2883.82C3090.98 2726.38 3020.31 2577.55 2926.48 2443.5" stroke="#4A3AFF" stroke-width="5" stroke-miterlimit="10"/>
<path d="M3531.47 436.467C3106.42 633.644 2722.82 909.986 2401.17 1250.72C1799.17 1892.17 1109.9 3106.47 1544.72 3980.39C1677.72 4247.91 1972.08 4595.61 2273.76 4566.9C2738.16 4522.64 3161.79 3688.62 3055.63 2984.02C3030.7 2822.32 2978.9 2665.93 2902.37 2521.32" stroke="#4A3AFF" stroke-width="5" stroke-miterlimit="10"/>
<path d="M3749.25 603.792C3303.16 747.246 2888.47 974.351 2527.34 1272.97C1851.75 1835.61 1017.91 2956.05 1341.97 3876.71C1441.42 4158.53 1690.03 4539.8 1993.58 4548C2459.72 4561.18 2982.66 3785.59 2963.89 3073.15C2958.83 2909.72 2926.48 2748.29 2868.18 2595.54" stroke="#4A3AFF" stroke-width="5" stroke-miterlimit="10"/>
<path d="M3944.78 796.602C3484.45 884.172 3045.01 1058.58 2649.9 1310.51C1910.17 1785.89 945.074 2795.31 1153.53 3748.91C1217.42 4040.8 1417.93 4449.79 1717.62 4495.54C2178.67 4565.9 2792.98 3860.42 2861.97 3151.09C2877.24 2988.2 2865.09 2823.9 2826.04 2665.03" stroke="#4A3AFF" stroke-width="5" stroke-miterlimit="10"/>
<path d="M4115.07 1012.04C3647.47 1042.34 3189.91 1161.44 2766.87 1362.97C1974.43 1743.74 892.491 2626.99 982.239 3598.99C1009.83 3896.35 1158.5 4326.97 1450.37 4409.27C1899.23 4535.69 2595.58 3911.02 2751.09 3215.86C2786.34 3056.09 2794.54 2891.53 2775.33 2729.05" stroke="#4A3AFF" stroke-width="5" stroke-miterlimit="10"/>
<path d="M4257.65 1246.74C3789.85 1219.34 3321.12 1281.32 2876.51 1429.35C2043.67 1709.8 861.042 2453.32 830.712 3429.06C821.513 3727.41 916.109 4173.19 1195.67 4290.67C1625.14 4471.79 2393.34 3937.25 2633.25 3265.96C2687.82 3111.74 2716.14 2949.45 2717.03 2785.86" stroke="#4A3AFF" stroke-width="5" stroke-miterlimit="10"/>
<path d="M4370.27 1497.23C3909.4 1412.52 3436.62 1416.4 2977.2 1508.67C2115.77 1684.69 851.598 2277.29 701.19 3241.84C655.322 3536.96 694.602 3990.83 957.505 4141.74C1361.99 4373.96 2189.61 3937.99 2510.06 3301.51C2583.22 3155.18 2631.29 2997.59 2652.27 2835.34" stroke="#4A3AFF" stroke-width="5" stroke-miterlimit="10"/>
<path d="M4451.32 1759.65C4004.23 1618.98 3534.43 1564.85 3067.07 1600.16C2190.85 1668.53 863.033 2101.27 595.654 3040.08C513.862 3327.37 496.957 3782.6 739.35 3964.72C1112.26 4244.8 1987.24 3913.88 2383.52 3321.65C2474.18 3185.4 2541.41 3034.93 2582.41 2876.48" stroke="#4A3AFF" stroke-width="5" stroke-miterlimit="10"/>
<path d="M4499.42 2030.04C4073.19 1835.41 3613.77 1723.81 3145.75 1701.23C2267.42 1661.82 895.847 1927.97 515.725 2826.88C399.252 3101.86 326.534 3551.63 544.688 3762.09C880.309 4085.31 1789.34 3865.15 2255.36 3326C2361.97 3201.9 2447.02 3060.79 2506.95 2908.56" stroke="#4A3AFF" stroke-width="5" stroke-miterlimit="10"/>
<path d="M4514.09 2304.15C4114.9 2058.68 3672.62 1891.49 3210.89 1811.49C2344.12 1664.43 950.791 1760.03 462.525 2605.36C313.36 2863.93 185.824 3301.51 376.506 3537.08C669.74 3899.71 1598.91 3792.18 2127.7 3314.44C2248.78 3204.45 2350.51 3074.89 2428.64 2931.18" stroke="#4A3AFF" stroke-width="5" stroke-miterlimit="10"/>
<path d="M4494.83 2578.13C4128.85 2285.47 3710.49 2065.2 3262.1 1929.09C2419.94 1676.61 1025.37 1600.16 437.043 2379.23C256.926 2617.54 76.561 3035.98 237.038 3293.31C483.657 3689.24 1418.92 3696.7 2002.16 3287.59C2135.81 3193.27 2252.7 3077.21 2347.97 2944.23" stroke="#4A3AFF" stroke-width="5" stroke-miterlimit="10"/>
<path d="M4442.12 2847.64C4114.86 2512.27 3726.75 2242.26 3298.52 2052.04C2493.65 1698 1119.1 1450.86 439.526 2151.49C231.441 2365.93 1.23006 2759.01 128.766 3034.11C324.669 3456.78 1252.1 3579.72 1881.45 3245.45C2025.66 3168.22 2155.92 3067.37 2266.8 2947.09" stroke="#4A3AFF" stroke-width="5" stroke-miterlimit="10"/>
</svg>
